# xmcd
#
# Track frame offsets:
#	150
#	11488
#	22950
#	34412
#	45874
#	63187
#	80662
#	98137
#	115612
#	128290
#	141170
#	154050
#	166930
#	178838
#	190930
#	203022
#	215114
#	229423
#	243732
#	258041
#
# Disc length: 3629 seconds
#
# Revision: 1
# Processed by: cddbd v1.5.2PL0 Copyright (c) Steve Scherf et al.
# Submitted via: audiograbber 1.83.01
#
DISCID=070e2b14
DTITLE=db Loops - Play Along Blues Volume 3 CD 2
DYEAR=2012
DGENRE=Blues
TTITLE0=Peter Green Complete
TTITLE1=Peter Green ohne Solo Gitarre
TTITLE2=Peter Green ohne Gitarren
TTITLE3=Peter Green ohne Bass mit Solo G
TTITLE4=Doobie Brothers Complete
TTITLE5=Doobie Brothers ohne Solo Gitarre
TTITLE6=Doobie Brothers ohne Gitarren
TTITLE7=Doobie Brothers ohne Bass mit Solo G
TTITLE8=Muddy Waters Complete
TTITLE9=Muddy Waters ohne Solo Gitarre
TTITLE10=Muddy Waters ohne Gitarren
TTITLE11=Muddy Waters ohen Bass mit Solo G
TTITLE12=Stevy Ray Vaughn Complete 
TTITLE13=Stevy Ray Vaughn ohne Solo Gitarre
TTITLE14=Stevy Ray Vaughn ohen Gitarren
TTITLE15=Stevy Ray Vaughn ohne Bass mit Solo G
TTITLE16=RnB 60er Style Complete
TTITLE17=RnB 60er Style ohne Solo Gitarre
TTITLE18=RnB 60er Style ohne Gitarren 
TTITLE19=RnB 60er Style ohne Bass mit Solo G
EXTD=
EXTT0=
EXTT1=
EXTT2=
EXTT3=
EXTT4=
EXTT5=
EXTT6=
EXTT7=
EXTT8=
EXTT9=
EXTT10=
EXTT11=
EXTT12=
EXTT13=
EXTT14=
EXTT15=
EXTT16=
EXTT17=
EXTT18=
EXTT19=
PLAYORDER=
